<svg width="24" height="24" viewBox="0 0 24 24" fill="none" xmlns="http://www.w3.org/2000/svg">
<path fill-rule="evenodd" clip-rule="evenodd" d="M0 11.6216C0 8.53938 1.22442 5.58337 3.40389 3.40389C5.58337 1.22442 8.53938 0 11.6216 0C14.7039 0 17.6599 1.22442 19.8393 3.40389C22.0188 5.58337 23.2432 8.53938 23.2432 11.6216C23.2432 14.7039 22.0188 17.6599 19.8393 19.8393C17.6599 22.0188 14.7039 23.2432 11.6216 23.2432C8.53938 23.2432 5.58337 22.0188 3.40389 19.8393C1.22442 17.6599 0 14.7039 0 11.6216ZM21.583 11.6216C21.583 10.3135 21.3254 9.01813 20.8248 7.80956C20.3242 6.60099 19.5904 5.50286 18.6654 4.57785C17.7404 3.65285 16.6423 2.9191 15.4337 2.4185C14.2251 1.91789 12.9298 1.66023 11.6216 1.66023C10.3135 1.66023 9.01815 1.91789 7.80958 2.4185C6.60101 2.9191 5.50288 3.65285 4.57788 4.57785C3.65287 5.50286 2.91912 6.60099 2.41852 7.80956C1.91791 9.01813 1.66025 10.3135 1.66025 11.6216C1.66025 14.2635 2.70975 16.7973 4.57788 18.6654C6.446 20.5335 8.97972 21.583 11.6216 21.583C14.2636 21.583 16.7973 20.5335 18.6654 18.6654C20.5335 16.7973 21.583 14.2635 21.583 11.6216ZM10.4229 12.7788L8.37585 10.7317C8.3304 10.6855 8.27625 10.6488 8.21654 10.6236C8.15682 10.5984 8.09271 10.5853 8.0279 10.585C7.96309 10.5847 7.89885 10.5972 7.8389 10.6218C7.77894 10.6464 7.72445 10.6827 7.67856 10.7284L6.66084 11.7478C6.56922 11.8409 6.51815 11.9665 6.51877 12.0971C6.51939 12.2278 6.57166 12.3529 6.66416 12.4451L9.8352 15.6145C9.98949 15.7692 10.1986 15.8568 10.4171 15.8584C10.6356 15.8599 10.8459 15.7753 11.0023 15.6228L11.4423 15.1828L16.5973 10.0278C16.6842 9.9355 16.7313 9.81277 16.7285 9.68605C16.7257 9.55934 16.6732 9.43881 16.5824 9.35043L15.563 8.33104C15.4748 8.23981 15.3542 8.18706 15.2274 8.18426C15.1005 8.18146 14.9777 8.22884 14.8856 8.3161L10.4229 12.7788Z" fill="#27C289"/>
</svg>
