<svg width="51" height="51" viewBox="0 0 51 51" fill="none" xmlns="http://www.w3.org/2000/svg">
<path fill-rule="evenodd" clip-rule="evenodd" d="M18.4022 7.09361C18.4022 5.46559 19.9405 3.80963 22.2758 3.80963H28.0244C30.3597 3.80963 31.8979 5.46558 31.8979 7.09361V10.3776H18.4022V7.09361ZM14.6522 10.3776V7.09361C14.6522 3.02317 18.2614 0.0596313 22.2758 0.0596313H28.0244C32.0389 0.0596313 35.6479 3.02319 35.6479 7.09361V10.3776H48.1443C49.1799 10.3776 50.0193 11.217 50.0193 12.2526C50.0193 13.2881 49.1799 14.1276 48.1443 14.1276H33.7729H16.5272H2.15576C1.12023 14.1276 0.280762 13.2881 0.280762 12.2526C0.280762 11.217 1.12023 10.3776 2.15576 10.3776H14.6522ZM19.4015 23.275C20.437 23.275 21.2765 24.1145 21.2765 25.15V38.0475C21.2765 39.083 20.437 39.9225 19.4015 39.9225C18.366 39.9225 17.5265 39.083 17.5265 38.0475V25.15C17.5265 24.1145 18.366 23.275 19.4015 23.275ZM30.8986 23.275C31.9341 23.275 32.7736 24.1145 32.7736 25.15V38.0475C32.7736 39.083 31.9341 39.9225 30.8986 39.9225C29.863 39.9225 29.0236 39.083 29.0236 38.0475V25.15C29.0236 24.1145 29.863 23.275 30.8986 23.275ZM7.9043 18.116C8.93983 18.116 9.7793 18.9555 9.7793 19.991V40.6269C9.7793 43.6797 12.6044 46.4904 16.5272 46.4904H33.7729C37.6957 46.4904 40.5207 43.6797 40.5207 40.6269V19.991C40.5207 18.9555 41.3602 18.116 42.3957 18.116C43.4313 18.116 44.2707 18.9555 44.2707 19.991V40.6269C44.2707 46.1221 39.3748 50.2404 33.7729 50.2404H16.5272C10.9254 50.2404 6.0293 46.1221 6.0293 40.6269V19.991C6.0293 18.9555 6.86876 18.116 7.9043 18.116Z" fill="black"/>
</svg>
