<svg width="61" height="61" viewBox="0 0 61 61" fill="none" xmlns="http://www.w3.org/2000/svg">
<path d="M53.5324 16.2638L29.6824 40.1137C27.3074 42.4887 20.2573 43.5887 18.6823 42.0137C17.1073 40.4387 18.1823 33.3887 20.5573 31.0137L44.4324 7.13872C45.0211 6.49637 45.7339 5.98002 46.5279 5.62077C47.3216 5.26152 48.1801 5.06677 49.0514 5.04842C49.9224 5.0301 50.7884 5.18845 51.5966 5.51397C52.4049 5.8395 53.1389 6.3255 53.7541 6.9425C54.3694 7.5595 54.8534 8.29475 55.1766 9.1039C55.4999 9.91307 55.6561 10.7793 55.6354 11.6504C55.6146 12.5216 55.4174 13.3795 55.0561 14.1724C54.6946 14.9653 54.1764 15.6768 53.5324 16.2638Z" stroke="black" stroke-width="4" stroke-linecap="round" stroke-linejoin="round"/>
<path d="M27.8326 10.2637H15.3326C12.6805 10.2637 10.1371 11.3172 8.26172 13.1926C6.38637 15.068 5.33264 17.6115 5.33264 20.2637V45.2637C5.33264 47.9159 6.38637 50.4594 8.26172 52.3347C10.1371 54.2102 12.6805 55.2637 15.3326 55.2637H42.8326C48.3576 55.2637 50.3326 50.7637 50.3326 45.2637V32.7637" stroke="black" stroke-width="4" stroke-linecap="round" stroke-linejoin="round"/>
</svg>
