<svg width="55" height="55" viewBox="0 0 55 55" fill="none" xmlns="http://www.w3.org/2000/svg">
<path d="M50.1998 13.2168L26.3498 37.0667C23.9748 39.4417 16.9247 40.5417 15.3497 38.9667C13.7747 37.3917 14.8497 30.3417 17.2247 27.9667L41.0998 4.09173C41.6885 3.44938 42.4013 2.93303 43.1953 2.57378C43.989 2.21453 44.8475 2.01978 45.7188 2.00143C46.5898 1.9831 47.4558 2.14145 48.264 2.46698C49.0723 2.7925 49.8063 3.2785 50.4215 3.8955C51.0368 4.5125 51.5208 5.24775 51.844 6.0569C52.1673 6.86608 52.3235 7.73233 52.3028 8.60345C52.282 9.47458 52.0848 10.3326 51.7235 11.1254C51.362 11.9183 50.8438 12.6298 50.1998 13.2168Z" stroke="black" stroke-width="3.75" stroke-linecap="round" stroke-linejoin="round"/>
<path d="M24.5 7.21667H12C9.34782 7.21667 6.80445 8.27022 4.92907 10.1456C3.05372 12.021 2 14.5645 2 17.2167V42.2167C2 44.8689 3.05372 47.4124 4.92907 49.2877C6.80445 51.1632 9.34782 52.2167 12 52.2167H39.5C45.025 52.2167 47 47.7167 47 42.2167V29.7167" stroke="black" stroke-width="3.75" stroke-linecap="round" stroke-linejoin="round"/>
</svg>
