<svg width="24" height="24" viewBox="0 0 24 24" fill="none" xmlns="http://www.w3.org/2000/svg">
<path fill-rule="evenodd" clip-rule="evenodd" d="M0 12.1081C0 9.02586 1.22442 6.06986 3.40389 3.89038C5.58337 1.71091 8.53938 0.486488 11.6216 0.486488C14.7039 0.486488 17.6599 1.71091 19.8393 3.89038C22.0188 6.06986 23.2432 9.02586 23.2432 12.1081C23.2432 15.1904 22.0188 18.1464 19.8393 20.3258C17.6599 22.5053 14.7039 23.7297 11.6216 23.7297C8.53938 23.7297 5.58337 22.5053 3.40389 20.3258C1.22442 18.1464 0 15.1904 0 12.1081ZM21.4723 11.9974C21.4723 10.6893 21.2147 9.39394 20.7141 8.18537C20.2135 6.9768 19.4797 5.87866 18.5547 4.95366C17.6297 4.02866 16.5316 3.29491 15.323 2.7943C14.1144 2.2937 12.8191 2.03604 11.5109 2.03604C10.2028 2.03604 8.90745 2.2937 7.69888 2.7943C6.49031 3.29491 5.39217 4.02866 4.46717 4.95366C3.54217 5.87866 2.80842 6.9768 2.30782 8.18537C1.80721 9.39394 1.54955 10.6893 1.54955 11.9974C1.54955 14.6394 2.59905 17.1731 4.46717 19.0412C6.3353 20.9093 8.86901 21.9588 11.5109 21.9588C14.1529 21.9588 16.6866 20.9093 18.5547 19.0412C20.4228 17.1731 21.4723 14.6394 21.4723 11.9974ZM15.2921 7.45946L16.6577 8.825L13.1809 12.3018L16.6577 15.7786L15.2921 17.1441L11.8153 13.6673L8.33851 17.1441L6.97297 15.7786L10.4498 12.3018L6.97297 8.825L8.33851 7.45946L11.8153 10.9363L15.2921 7.45946Z" fill="#FF6E0A"/>
</svg>
