<svg width="24" height="24" viewBox="0 0 24 24" fill="none" xmlns="http://www.w3.org/2000/svg">
<path fill-rule="evenodd" clip-rule="evenodd" d="M0 11.8378C0 8.75559 1.22442 5.79959 3.40389 3.62011C5.58337 1.44063 8.53938 0.216217 11.6216 0.216217C14.7039 0.216217 17.6599 1.44063 19.8393 3.62011C22.0188 5.79959 23.2432 8.75559 23.2432 11.8378C23.2432 14.9201 22.0188 17.8761 19.8393 20.0556C17.6599 22.235 14.7039 23.4595 11.6216 23.4595C8.53938 23.4595 5.58337 22.235 3.40389 20.0556C1.22442 17.8761 0 14.9201 0 11.8378ZM21.4723 11.7272C21.4723 10.419 21.2147 9.12367 20.7141 7.9151C20.2135 6.70653 19.4797 5.60839 18.5547 4.68339C17.6297 3.75839 16.5316 3.02464 15.323 2.52403C14.1144 2.02343 12.8191 1.76577 11.5109 1.76577C10.2028 1.76577 8.90745 2.02343 7.69888 2.52403C6.49031 3.02464 5.39217 3.75839 4.46717 4.68339C3.54217 5.60839 2.80842 6.70653 2.30782 7.9151C1.80721 9.12367 1.54955 10.419 1.54955 11.7272C1.54955 14.3691 2.59905 16.9028 4.46717 18.7709C6.3353 20.639 8.86901 21.6885 11.5109 21.6885C14.1529 21.6885 16.6866 20.639 18.5547 18.7709C20.4228 16.9028 21.4723 14.3691 21.4723 11.7272ZM5.1982 12.0315C5.1982 11.4792 5.64591 11.0315 6.1982 11.0315H17.052C17.6042 11.0315 18.052 11.4792 18.052 12.0315C18.052 12.5838 17.6042 13.0315 17.052 13.0315H6.1982C5.64591 13.0315 5.1982 12.5838 5.1982 12.0315Z" fill="#AA6B3F"/>
</svg>
